<svg
  xmlns="http://www.w3.org/2000/svg"
  viewBox="0 0 24 24"
>
  <rect width="24" height="24" rx="6" fill="#041E42" />

  <g
    fill="none"
    stroke="#FACC15"
    stroke-width="2"
    stroke-linecap="round"
    stroke-linejoin="round"
  >
    <path d="M19 17h2c.6 0 1-.4 1-1v-3c0-.6-.4-1-1-1h-1l-2.68-5.36A2 2 0 0 0 15.53 5H8.47a2 2 0 0 0-1.79 1.11L4 12H3c-.6 0-1 .4-1 1v3c0 .6.4 1 1 1h2" />
    <path d="M9 17h6" />
    <path d="M5 11h14" />
    <circle cx="7" cy="17" r="2" />
    <circle cx="17" cy="17" r="2" />
  </g>
</svg>